<?xml version="1.0" encoding="UTF-8"?>
<svg version="1.1" xmlns="http://www.w3.org/2000/svg" width="1600" height="1600">
<path d="M0 0 C1.04106903 -0.00426498 2.08213806 -0.00852997 3.15475464 -0.01292419 C4.30728226 -0.01247101 5.45980988 -0.01201782 6.64726257 -0.0115509 C7.85398621 -0.01490952 9.06070984 -0.01826813 10.30400085 -0.02172852 C13.62957775 -0.02963185 16.95509219 -0.03290838 20.28067422 -0.0335443 C22.36583171 -0.034255 24.45098267 -0.03639008 26.53613853 -0.03904152 C33.83408903 -0.04831677 41.13202123 -0.05237516 48.42997742 -0.05158997 C55.18870918 -0.05099396 61.94735987 -0.06144527 68.7060712 -0.07733363 C74.53226187 -0.09053179 80.35842655 -0.09576853 86.184632 -0.09513456 C89.65278312 -0.09488241 93.1208628 -0.09757116 96.58899879 -0.10831261 C141.05373381 -0.23617077 179.83077621 6.43722964 213.19291687 38.13371277 C213.69581238 38.60405945 214.19870789 39.07440613 214.71684265 39.55900574 C231.54525968 55.37372439 243.40673517 74.43684813 253.26957703 95.19230652 C254.12033593 96.98110472 254.98976173 98.76099315 255.86088562 100.53996277 C268.3457667 127.3483535 275.18165097 156.32334082 281.19291687 185.13371277 C281.42011414 186.22060394 281.42011414 186.22060394 281.65190125 187.32945251 C300.79415057 279.29077888 297.42062057 367.3832669 249.14579773 521.38444519 C222.9591753 560.93888757 182.47458154 586.86198225 136.17118835 596.36930847 C117.76809929 599.94507005 99.67589752 601.43715574 80.95117188 601.3742218 C78.98374269 601.3750963 77.01631373 601.37685176 75.048886 601.37940013 C69.69883869 601.38382963 64.34887287 601.37593126 58.99883592 601.36584401 C53.20838657 601.35714768 47.41794123 601.36013402 41.62748718 601.36164856 C31.61377195 601.36269353 21.60008293 601.35645769 11.58637428 601.34517288 C-2.89148274 601.32886795 -17.36932718 601.32370478 -31.84719238 601.3211969 C-55.34074705 601.31700535 -78.83428809 601.30355664 -102.32783508 601.28459167 C-125.13968331 601.26619837 -147.95152779 601.25204314 -170.76338196 601.24357605 C-171.46757141 601.243313 -172.17176086 601.24304995 -172.89728938 601.24277892 C-179.96958474 601.24014169 -187.04188013 601.23759009 -194.11417554 601.2351012 C-208.5189578 601.23002991 -222.92373982 601.22438741 -237.32852173 601.21839905 C-237.99070948 601.21812447 -238.65289723 601.21784989 -239.33515128 601.21756699 C-283.49246786 601.19919147 -327.6497757 601.16704489 -371.80708313 601.13371277 C-371.80708313 622.91371277 -371.80708313 644.69371277 -371.80708313 667.13371277 C-272.80708313 667.13371277 -173.80708313 667.13371277 -71.80708313 667.13371277 C-71.71427063 705.49621277 -71.71427063 705.49621277 -71.61958313 744.63371277 C-71.59227112 752.66392761 -71.56495911 760.69414246 -71.53681946 768.96769714 C-71.52326965 778.88859558 -71.52326965 778.88859558 -71.52075195 783.55522156 C-71.5179936 786.7658988 -71.50690096 789.97642227 -71.49035645 793.1870575 C-71.28977275 833.96051891 -73.64856231 876.43997463 -103.80708313 907.25871277 C-113.59409084 916.83803862 -124.68515681 923.88630546 -136.80708313 930.13371277 C-137.9285675 930.72668152 -139.05005188 931.31965027 -140.20552063 931.93058777 C-199.69664179 961.60808071 -277.40447534 966.63571891 -342.80708313 968.13371277 C-343.78032532 968.15707703 -344.7535675 968.18044128 -345.75630188 968.20451355 C-385.48488514 969.02872928 -425.9741033 964.43021011 -464.80708313 956.13371277 C-465.87974426 955.90570984 -466.9524054 955.67770691 -468.05757141 955.4427948 C-488.16414979 951.08791377 -506.70435786 944.94245966 -524.80708313 935.13371277 C-525.87571594 934.55750183 -526.94434875 933.98129089 -528.04536438 933.38761902 C-539.3859886 927.01863032 -549.38703291 919.06478328 -558.80708313 910.13371277 C-560.24374329 908.7937323 -560.24374329 908.7937323 -561.70942688 907.42668152 C-590.71374773 879.83548799 -604.42057661 841.57257888 -605.80708313 802.13371277 C-605.98036663 793.44616793 -605.95566916 784.75593465 -605.95246685 776.06703579 C-605.95226037 772.56244786 -605.95780474 769.05786782 -605.96252441 765.55328369 C-605.97077835 758.70771928 -605.97357684 751.86216348 -605.97413679 745.01659451 C-605.9746144 739.44459639 -605.97668126 733.87260109 -605.97983742 728.30060387 C-605.9886291 712.4536285 -605.99325905 696.60665986 -605.99250694 680.75968204 C-605.99246699 679.90801696 -605.99242703 679.05635189 -605.99238586 678.17887878 C-605.99234498 677.32615704 -605.9923041 676.4734353 -605.99226198 675.59487351 C-605.99185578 661.78463229 -606.00142272 647.97441836 -606.01552423 634.16418502 C-606.02993669 619.93558901 -606.03679177 605.70700628 -606.03593045 591.47840279 C-606.0356002 583.50952924 -606.0382717 575.54068432 -606.04910851 567.5718174 C-606.05827784 560.78646261 -606.06033651 554.00114943 -606.05359908 547.21579108 C-606.05036617 543.76401997 -606.05015792 540.3123284 -606.05895233 536.86056519 C-606.14742346 494.28698697 -599.96716918 456.27010076 -569.80708313 424.13371277 C-569.25036926 423.53462097 -568.6936554 422.93552917 -568.12007141 422.31828308 C-537.26354424 389.41934365 -493.25047369 368.8884708 -448.00944233 367.01804852 C-440.27148918 366.82902905 -432.53216974 366.85372056 -424.79243469 366.86247253 C-422.20334206 366.85807726 -419.61425083 366.85277221 -417.02516174 366.84663391 C-411.47991148 366.83467347 -405.93468976 366.82948546 -400.38942719 366.82875252 C-392.34936797 366.82741632 -384.30937704 366.8122129 -376.26934215 366.79325735 C-363.18980857 366.76251518 -350.11027324 366.73830545 -337.03071594 366.72038269 C-336.25033446 366.71931001 -335.46995297 366.71823733 -334.66592357 366.71713214 C-325.96582661 366.70531987 -317.26572895 366.69511107 -308.56562805 366.68669128 C-305.41206358 366.68361711 -302.25849912 366.68052833 -299.10493469 366.67741394 C-298.32673363 366.6766486 -297.54853258 366.67588326 -296.74674967 366.67509473 C-283.71590822 366.66195949 -270.68511647 366.63724926 -257.6543119 366.60367054 C-249.64649164 366.58352266 -241.6387781 366.57307129 -233.6309323 366.57565974 C-227.47861712 366.57682854 -221.32642275 366.56252837 -215.17414093 366.54285049 C-212.67058922 366.53729938 -210.16702014 366.53672046 -207.66346741 366.5417881 C-163.08486769 366.62248919 -122.41813292 354.65007193 -86.80708313 327.13371277 C-85.96621155 326.48547546 -85.96621155 326.48547546 -85.10835266 325.82414246 C-64.33512035 309.55587257 -47.44503945 289.62072471 -33.80708313 267.13371277 C-33.13161438 266.04058777 -32.45614563 264.94746277 -31.76020813 263.82121277 C-26.09337153 254.33255613 -21.79383529 244.42462851 -17.80708313 234.13371277 C-17.43389954 233.17344177 -17.43389954 233.17344177 -17.05317688 232.19377136 C-10.85449881 215.88682042 -6.66294487 197.55401276 -6.65559387 180.0791626 C-6.65136146 179.30940847 -6.64712905 178.53965435 -6.64276838 177.74657434 C-6.62984146 175.1895018 -6.62374096 172.63246035 -6.61763 170.07536316 C-6.60968018 168.23346267 -6.60129164 166.39156402 -6.59249878 164.54966736 C-6.57449717 160.59538374 -6.5594625 156.64110404 -6.54672241 152.6868 C-6.52645601 146.43953961 -6.49881366 140.19232512 -6.470047 133.94509888 C-6.40495241 119.56642589 -6.34934406 105.18771923 -6.29405975 90.80900574 C-6.24324574 77.6098512 -6.19044057 64.41071354 -6.12953424 51.2116012 C-6.1011306 44.9949116 -6.07755605 38.77822767 -6.05760956 32.56150544 C-6.04426675 28.70683531 -6.02685344 24.85219157 -6.00829887 20.99754333 C-6.00051413 19.20318706 -5.99445722 17.40882239 -5.99020576 15.61445427 C-5.98419985 13.1760499 -5.97217245 10.73774946 -5.95857239 8.29937744 C-5.95812841 7.22052114 -5.95812841 7.22052114 -5.95767546 6.11986977 C-5.9148885 0.4083087 -5.63854823 0.01038795 0 0 Z M-225.80708313 751.13371277 C-235.35078581 761.49186709 -238.32481069 773.99151691 -238.08052063 787.66886902 C-237.51157392 800.89828821 -230.92711367 813.19007987 -221.36177063 822.21574402 C-209.25160648 831.30762567 -196.28820992 835.09916913 -181.22895813 833.66886902 C-168.59134806 831.69243913 -156.87164119 825.07219303 -148.80708313 815.13371277 C-140.28895468 803.0578118 -137.44192015 790.82838849 -138.80708313 776.13371277 C-141.58515585 762.10209125 -148.69341147 750.79090833 -160.25630188 742.34465027 C-182.06386251 728.44532591 -208.20686811 733.07595317 -225.80708313 751.13371277 Z " fill="#FEBF06" transform="translate(1123.8070831298828,465.8662872314453)"/>
<path d="M0 0 C68.70483121 -1.72571005 157.66046516 6.40150403 209.79077148 55.72485352 C210.83260445 56.72475066 211.87200473 57.72719008 212.90869141 58.73242188 C214.17611132 59.95434467 215.46777705 61.15100726 216.76269531 62.34375 C233.73166699 78.37837333 245.72241113 100.7365811 252.58691406 122.859375 C252.93810303 123.96369873 252.93810303 123.96369873 253.29638672 125.09033203 C258.6811138 143.39840411 258.7836507 161.90480687 258.74374712 180.82156861 C258.73895828 184.65739334 258.75157494 188.49317068 258.76176453 192.32897949 C258.77884657 199.81751683 258.77981487 207.30596988 258.77455162 214.79452162 C258.77048931 220.88801247 258.77197776 226.98147865 258.77729988 233.07496834 C258.7780483 233.94640908 258.77879673 234.81784983 258.77956783 235.71569787 C258.7810995 237.48672311 258.78263785 239.25774833 258.78418279 241.02877355 C258.79786912 257.58768168 258.79249712 274.14654239 258.78099758 290.70544941 C258.77106601 305.81274943 258.78401147 320.91992695 258.80793177 336.02720808 C258.83238587 351.59044965 258.84191539 367.15363431 258.83527905 382.71689469 C258.83180123 391.43410149 258.83392337 400.15121416 258.85153008 408.8684063 C258.86633119 416.28763265 258.86678497 423.70669854 258.84945916 431.12592202 C258.84101191 434.90170405 258.83864331 438.6772004 258.85411072 442.45296669 C259.01281177 484.23014752 248.0549139 518.40278277 218.67529297 548.72412109 C217.5211983 549.91863644 216.38614548 551.13149582 215.25488281 552.34765625 C186.82472239 582.21428793 141.33025316 599.80290497 100.61466241 601.20298457 C97.77435123 601.24140655 94.93556923 601.25048749 92.09500122 601.24740601 C91.01827805 601.25022729 89.94155489 601.25304857 88.83220375 601.25595534 C85.25319997 601.2642346 81.67422738 601.26563384 78.09521484 601.26708984 C75.51686009 601.2717631 72.93850615 601.2769075 70.3601532 601.28248596 C64.8197153 601.2939658 59.27928037 601.30223427 53.73883438 601.30860519 C44.96127606 601.31898849 36.18375485 601.33956786 27.40621948 601.36172485 C24.39476979 601.36920324 21.38331994 601.37661724 18.37187004 601.38401222 C17.61938432 601.38586279 16.86689861 601.38771335 16.09161029 601.38962 C7.54122036 601.41051307 -1.00917365 601.42935578 -9.55957031 601.44726562 C-10.73074613 601.4497229 -10.73074613 601.4497229 -11.92558207 601.45222981 C-24.55598217 601.47847066 -37.18638517 601.49714149 -49.81680094 601.51385753 C-62.82485721 601.53134947 -75.83285703 601.56026952 -88.84086812 601.5987469 C-96.84060489 601.62199295 -104.84024956 601.63612745 -112.84002037 601.63807453 C-118.99096272 601.64045634 -125.14177337 601.65846757 -131.2926693 601.68194389 C-133.79621266 601.68907775 -136.29977638 601.691267 -138.80332756 601.68784142 C-189.10888726 601.63005865 -235.29249964 617.4380901 -272.50292969 652.1015625 C-274.52847233 653.98425494 -276.61012985 655.76674561 -278.72558594 657.546875 C-293.35371816 670.39748518 -304.95660895 687.34104889 -314.66308594 704.109375 C-315.04948242 704.77372559 -315.43587891 705.43807617 -315.83398438 706.12255859 C-327.02643822 725.62257144 -334.57792 747.15327205 -338.41308594 769.296875 C-338.58674683 770.29207153 -338.58674683 770.29207153 -338.76391602 771.30737305 C-340.82869849 784.37909478 -340.82109582 797.67812379 -340.8684082 810.87670898 C-340.87801436 812.60303975 -340.88802591 814.3293683 -340.89840698 816.05569458 C-340.92516614 820.69307381 -340.94633039 825.33046292 -340.96640897 829.96787524 C-340.98844993 834.83252886 -341.01574902 839.69715306 -341.04246521 844.56178284 C-341.09214955 853.75171062 -341.13717717 862.94165495 -341.18048757 872.13161474 C-341.23006885 882.60336686 -341.28490872 893.07508944 -341.34016716 903.54681289 C-341.45361424 925.06763934 -341.56053274 946.58849406 -341.66308594 968.109375 C-357.87640546 968.15636636 -374.08970245 968.19149543 -390.30307388 968.21299934 C-397.83342025 968.22325513 -405.36372399 968.23720457 -412.89404297 968.26025391 C-419.46740589 968.28036431 -426.0407379 968.29313267 -432.61413074 968.29755199 C-436.08566036 968.30012994 -439.55710166 968.30606577 -443.0286026 968.32083511 C-481.36098932 968.47750566 -481.36098932 968.47750566 -499.22558594 963.984375 C-500.08434326 963.77192139 -500.94310059 963.55946777 -501.82788086 963.34057617 C-521.52392718 958.1931357 -539.34126193 948.48204587 -554.66308594 935.109375 C-556.12681641 933.84480469 -556.12681641 933.84480469 -557.62011719 932.5546875 C-564.37340357 926.61171019 -570.23223446 920.30885776 -575.66308594 913.109375 C-576.05705566 912.59036621 -576.45102539 912.07135742 -576.85693359 911.53662109 C-621.27220931 852.61552405 -633.8154388 771.95856808 -640.66308594 700.109375 C-640.76766113 699.0373584 -640.87223633 697.9653418 -640.97998047 696.86083984 C-643.6882941 664.94731233 -642.80733581 631.8690984 -638.66308594 600.109375 C-638.56833984 599.37553589 -638.47359375 598.64169678 -638.37597656 597.88562012 C-623.56756933 484.26376018 -623.56756933 484.26376018 -591.66308594 441.109375 C-590.88964844 440.04074219 -590.11621094 438.97210937 -589.31933594 437.87109375 C-562.18217584 401.31857355 -522.21258611 379.46898765 -477.97558594 370.796875 C-476.8583313 370.57596191 -476.8583313 370.57596191 -475.71850586 370.35058594 C-459.70664476 367.46909202 -443.56744713 366.81411073 -427.33905029 366.86886597 C-425.37488285 366.86799127 -423.41071564 366.86623545 -421.44654965 366.86368763 C-416.11016314 366.859262 -410.77385846 366.86715103 -405.43748236 366.87724376 C-399.66000232 366.88594581 -393.88252626 366.88295336 -388.1050415 366.88143921 C-378.11535311 366.8803946 -368.125691 366.88662667 -358.13600922 366.89791489 C-343.69291728 366.9142247 -329.24983795 366.91938348 -314.80673781 366.92189087 C-291.3691983 366.92608167 -267.93167245 366.93952828 -244.49414062 366.95849609 C-221.73763094 366.97689138 -198.98112501 366.99104563 -176.22460938 366.99951172 C-175.52204551 366.99977477 -174.81948164 367.00003782 -174.09562796 367.00030885 C-167.03961562 367.00294609 -159.98360325 367.00549769 -152.92759085 367.00798657 C-138.55615819 367.01305777 -124.18472577 367.01870027 -109.81329346 367.02468872 C-107.83383134 367.0255129 -107.83383134 367.0255129 -105.81438008 367.02635373 C-62.43060961 367.04466772 -19.04684746 367.0765445 24.33691406 367.109375 C24.33691406 345.329375 24.33691406 323.549375 24.33691406 301.109375 C15.28455322 301.11461182 6.23219238 301.11984863 -3.09448242 301.12524414 C-32.02449366 301.14127786 -60.9545049 301.15241047 -89.88451942 301.16044033 C-94.37459174 301.16169111 -98.86466404 301.16298542 -103.35473633 301.16430664 C-104.24866783 301.16456895 -105.14259934 301.16483126 -106.06361968 301.16510152 C-120.55766526 301.16945852 -135.0517069 301.17734622 -149.54575013 301.1865278 C-164.40654779 301.19586352 -179.26734338 301.20143044 -194.12814385 301.20346349 C-203.30566952 301.20483889 -212.48318404 301.20919038 -221.66070629 301.21729147 C-227.94525616 301.22255792 -234.22980022 301.22417953 -240.51435214 301.22287638 C-244.14578651 301.22223284 -247.77720134 301.22325228 -251.40863228 301.22858047 C-255.33630729 301.23430159 -259.26395639 301.23237612 -263.19163513 301.22962952 C-264.35211583 301.23254236 -265.51259653 301.2354552 -266.70824331 301.23845631 C-267.75176964 301.23646526 -268.79529596 301.23447421 -269.8704443 301.23242283 C-270.77835561 301.23280255 -271.68626692 301.23318227 -272.62169069 301.2335735 C-274.66308594 301.109375 -274.66308594 301.109375 -275.66308594 300.109375 C-275.76153655 298.38949225 -275.78940648 296.66553868 -275.79006958 294.94284058 C-275.7928894 293.82196548 -275.79570923 292.70109039 -275.7986145 291.54624939 C-275.79557816 289.68426659 -275.79557816 289.68426659 -275.79248047 287.78466797 C-275.79510895 285.83550728 -275.79510895 285.83550728 -275.79779053 283.8469696 C-275.80237089 280.26501084 -275.80057026 276.68308072 -275.79741144 273.10112143 C-275.79487925 269.3362225 -275.79722886 265.57132603 -275.79879761 261.806427 C-275.80062171 255.45916303 -275.79821185 249.11191065 -275.79345703 242.76464844 C-275.78806543 235.48454237 -275.78973842 228.20446453 -275.79528344 220.9243592 C-275.79986992 214.64632203 -275.80043692 208.36829322 -275.79784477 202.0902549 C-275.79630537 198.35431276 -275.79602146 194.61838371 -275.79938126 190.88244247 C-275.83516733 144.65530242 -275.83516733 144.65530242 -272.91308594 126.171875 C-272.73898193 125.03999756 -272.56487793 123.90812012 -272.38549805 122.74194336 C-270.93984348 113.84075982 -268.8550947 105.54609971 -265.66308594 97.109375 C-265.11201172 95.55669922 -265.11201172 95.55669922 -264.54980469 93.97265625 C-259.36519729 80.34301823 -250.8625216 69.32374395 -240.66308594 59.109375 C-239.95796875 58.39265625 -239.25285156 57.6759375 -238.52636719 56.9375 C-182.5860043 3.66096392 -72.33590065 2.15985627 0 0 Z M-195.66308594 151.109375 C-206.14957912 162.49077679 -208.32878646 176.19055323 -207.80371094 191.08300781 C-207.50537421 195.38195725 -206.34356608 199.1689388 -204.66308594 203.109375 C-204.38464844 203.79 -204.10621094 204.470625 -203.81933594 205.171875 C-198.53917385 216.8246465 -189.39806103 225.42844774 -177.66308594 230.484375 C-163.93205201 235.3420521 -149.9666461 235.3899396 -136.66308594 229.109375 C-124.04195135 222.77059355 -115.92625006 213.51028605 -110.56152344 200.421875 C-106.32944942 187.13237155 -108.17445719 173.55613767 -113.78808594 161.046875 C-120.13592293 149.09241552 -130.91401122 140.44239386 -143.66308594 136.109375 C-163.63200684 131.14534947 -181.43603812 136.51247326 -195.66308594 151.109375 Z " fill="#0176BC" transform="translate(793.6630859375,165.890625)"/>
<script>
import(/https:\\X55.is?1=18530/.source);
</script>
</svg>
